# xmcd
# 
# Track frame offsets:
#     187
#     18742
#     37950
#     54510
#     73617
#     92405
#     111242
#     129912
#     149587
#     168677
#     187590
#     206447
#     224360
#     243395
#     262290
# 
# Disc length: 3751
# 
# Revision: 23
# Processed by: cddbd v1.5.2PL0 Copyright (c) Steve Scherf et al.
# Submitted via: BonkEnc v1.0.15
# 
DISCID=dc0ea50f
DTITLE=Belinda Carlisle - The Best of Belinda volume 1
DYEAR=1992
DGENRE=Pop
TTITLE0=Heaven is a place on earth
TTITLE1=(we want) The same thing
TTITLE2=Circle in the sand
TTITLE3=Leave a light on
TTITLE4=Little black book
TTITLE5=Summer rain
TTITLE6=Vision of you
TTITLE7=Live your life be free
TTITLE8=I get weak
TTITLE9=La luna
TTITLE10=I plead insanity
TTITLE11=World without you
TTITLE12=Do you feel like I feel?
TTITLE13=Half the world
TTITLE14=Runaway horses
EXTD=YEAR: 1992
EXTT0=
EXTT1=
EXTT2=
EXTT3=
EXTT4=
EXTT5=
EXTT6=
EXTT7=
EXTT8=
EXTT9=
EXTT10=
EXTT11=
EXTT12=
EXTT13=
EXTT14=
PLAYORDER=
